<?xml version="1.0" encoding="utf-8"?>
<!-- Generator: Adobe Illustrator 23.0.2, SVG Export Plug-In . SVG Version: 6.00 Build 0)  -->
<svg version="1.1" id="Layer_1" xmlns="http://www.w3.org/2000/svg" xmlns:xlink="http://www.w3.org/1999/xlink" x="0px" y="0px"
	 viewBox="0 0 1000 1000" style="enable-background:new 0 0 1000 1000;" xml:space="preserve">
<style type="text/css">
	.st0{fill:#172028;}
	.st1{fill:#F0ED7F;}
	.st2{fill:#58595B;}
	.st3{fill:#F4CBBD;}
	.st4{fill:#7F8133;}
	.st5{fill:#827D7A;}
	.st6{fill:#ED1C24;}
	.st7{fill:#7F8133;stroke:#C5312D;stroke-width:6;stroke-miterlimit:10;}
	.st8{fill:url(#XMLID_4_);}
	.st9{fill:url(#XMLID_5_);}
	.st10{fill:url(#XMLID_6_);}
	.st11{fill:url(#XMLID_7_);}
	.st12{fill:url(#XMLID_8_);}
	.st13{fill:url(#XMLID_9_);}
	.st14{fill:url(#XMLID_10_);}
	.st15{fill:url(#XMLID_12_);}
	.st16{fill:url(#XMLID_47_);}
	.st17{fill:url(#XMLID_51_);}
	.st18{fill:url(#XMLID_52_);}
	.st19{fill:url(#XMLID_58_);}
	.st20{fill:url(#XMLID_59_);}
	.st21{fill:url(#XMLID_60_);}
	.st22{fill:url(#XMLID_62_);}
	.st23{fill:url(#XMLID_63_);}
	.st24{fill:url(#XMLID_79_);}
	.st25{fill:url(#XMLID_80_);}
	.st26{fill:none;}
	.st27{fill:url(#XMLID_81_);}
</style>
<g id="XMLID_54_">
	<g>
		<g id="XMLID_1008_">
			<path id="XMLID_1039_" class="st3" d="M362.34,268.7c0,0,2.4-0.07,6.61-0.19c4.21-0.09,10.22-0.21,17.43-0.36
				c7.21-0.08,15.63-0.26,24.64-0.3c9.02-0.04,18.63-0.08,28.25-0.13c9.62,0.04,19.23,0.09,28.25,0.13
				c9.02,0.03,17.43,0.22,24.64,0.3c7.21,0.09,13.22,0.28,17.43,0.36c4.21,0.12,6.61,0.19,6.61,0.19s-2.4,0.07-6.61,0.19
				c-4.21,0.08-10.22,0.27-17.43,0.36c-7.21,0.08-15.63,0.26-24.64,0.3c-9.02,0.04-18.63,0.08-28.25,0.13
				c-9.62-0.04-19.23-0.09-28.25-0.13c-9.02-0.04-17.43-0.22-24.64-0.3c-7.21-0.15-13.22-0.27-17.43-0.36
				C364.74,268.76,362.34,268.7,362.34,268.7z"/>
			<path id="XMLID_1038_" class="st3" d="M362.34,274.34c0,0,2.4-0.07,6.61-0.19c4.21-0.09,10.22-0.21,17.43-0.36
				c7.21-0.08,15.63-0.26,24.64-0.3c9.02-0.04,18.63-0.08,28.25-0.13c9.62,0.04,19.23,0.09,28.25,0.13
				c9.02,0.03,17.43,0.22,24.64,0.3c7.21,0.09,13.22,0.28,17.43,0.36c4.21,0.12,6.61,0.19,6.61,0.19s-2.4,0.07-6.61,0.19
				c-4.21,0.08-10.22,0.27-17.43,0.36c-7.21,0.08-15.63,0.26-24.64,0.3c-9.02,0.04-18.63,0.08-28.25,0.13
				c-9.62-0.04-19.23-0.09-28.25-0.13c-9.02-0.04-17.43-0.22-24.64-0.3c-7.21-0.15-13.22-0.27-17.43-0.36
				C364.74,274.41,362.34,274.34,362.34,274.34z"/>
			<path id="XMLID_1037_" class="st3" d="M362.34,306.24c0,0,2.4-0.07,6.61-0.19c4.21-0.09,10.22-0.21,17.43-0.36
				c7.21-0.08,15.63-0.26,24.64-0.3c9.02-0.04,18.63-0.08,28.25-0.13c9.62,0.04,19.23,0.09,28.25,0.13
				c9.02,0.03,17.43,0.22,24.64,0.3c7.21,0.09,13.22,0.28,17.43,0.36c4.21,0.12,6.61,0.19,6.61,0.19s-2.4,0.07-6.61,0.19
				c-4.21,0.08-10.22,0.27-17.43,0.36c-7.21,0.08-15.63,0.26-24.64,0.3c-9.02,0.04-18.63,0.08-28.25,0.13
				c-9.62-0.04-19.23-0.09-28.25-0.13c-9.02-0.04-17.43-0.22-24.64-0.3c-7.21-0.15-13.22-0.27-17.43-0.36
				C364.74,306.3,362.34,306.24,362.34,306.24z"/>
			<path id="XMLID_1036_" class="st3" d="M317.22,281.42c0,0,3.87-0.07,10.64-0.19c6.77-0.09,16.44-0.21,28.05-0.36
				c11.61-0.09,25.15-0.19,39.65-0.3c14.51-0.04,29.98-0.08,45.46-0.13c15.47,0.04,30.95,0.09,45.46,0.13
				c14.51,0.11,28.05,0.21,39.65,0.3c11.61,0.15,21.28,0.27,28.05,0.36c6.77,0.12,10.64,0.19,10.64,0.19s-3.87,0.07-10.64,0.19
				c-6.77,0.09-16.44,0.21-28.05,0.36c-11.61,0.09-25.15,0.19-39.65,0.3c-14.51,0.04-29.98,0.08-45.46,0.13
				c-15.47-0.04-30.95-0.09-45.46-0.13c-14.51-0.11-28.05-0.21-39.65-0.3c-11.61-0.15-21.28-0.27-28.05-0.36
				C321.09,281.49,317.22,281.42,317.22,281.42z"/>
			<path id="XMLID_1035_" class="st3" d="M317.22,288.96c0,0,3.87-0.07,10.64-0.19c6.77-0.09,16.44-0.21,28.05-0.36
				c11.61-0.09,25.15-0.19,39.65-0.3c14.51-0.04,29.98-0.08,45.46-0.13c15.47,0.04,30.95,0.09,45.46,0.13
				c14.51,0.11,28.05,0.21,39.65,0.3c11.61,0.15,21.28,0.27,28.05,0.36c6.77,0.12,10.64,0.19,10.64,0.19s-3.87,0.07-10.64,0.19
				c-6.77,0.09-16.44,0.21-28.05,0.36c-11.61,0.09-25.15,0.19-39.65,0.3c-14.51,0.04-29.98,0.08-45.46,0.13
				c-15.47-0.04-30.95-0.09-45.46-0.13c-14.51-0.11-28.05-0.21-39.65-0.3c-11.61-0.15-21.28-0.27-28.05-0.36
				C321.09,289.03,317.22,288.96,317.22,288.96z"/>
			<path id="XMLID_1034_" class="st3" d="M284.03,322.85c0,0,5-0.14,13.75-0.38c8.75-0.16,21.25-0.54,36.25-0.71
				c15-0.16,32.5-0.52,51.26-0.59c18.75-0.08,38.75-0.17,58.76-0.26c20,0.09,40,0.17,58.76,0.25c18.75,0.06,36.25,0.43,51.26,0.59
				c15,0.17,27.5,0.56,36.25,0.71c8.75,0.24,13.75,0.38,13.75,0.38s-5,0.14-13.75,0.38c-8.75,0.16-21.25,0.54-36.25,0.71
				c-15,0.16-32.5,0.53-51.26,0.59c-18.75,0.08-38.75,0.17-58.76,0.25c-20-0.09-40.01-0.18-58.76-0.26
				c-18.75-0.07-36.25-0.43-51.26-0.59c-15-0.18-27.5-0.56-36.25-0.71C289.03,322.98,284.03,322.85,284.03,322.85z"/>
			<path id="XMLID_1033_" class="st3" d="M317.22,312.88c0,0,3.87-0.14,10.64-0.38c6.77-0.17,16.44-0.51,28.05-0.73
				c11.61-0.25,25.15-0.46,39.65-0.59c7.25-0.05,14.75-0.11,22.37-0.17c7.62-0.02,15.35-0.04,23.09-0.07
				c7.74,0.02,15.47,0.04,23.09,0.07c7.62,0.06,15.11,0.11,22.37,0.16c14.51,0.14,28.05,0.34,39.65,0.59
				c11.61,0.22,21.28,0.57,28.05,0.74c6.77,0.24,10.64,0.38,10.64,0.38s-3.87,0.14-10.64,0.38c-6.77,0.17-16.44,0.52-28.05,0.74
				c-11.61,0.25-25.15,0.46-39.65,0.59c-7.25,0.05-14.75,0.11-22.37,0.16c-7.62,0.02-15.35,0.04-23.09,0.07
				c-7.74-0.02-15.47-0.05-23.09-0.07c-7.62-0.06-15.11-0.11-22.37-0.17c-14.51-0.14-28.05-0.34-39.65-0.59
				c-11.61-0.22-21.28-0.57-28.05-0.73C321.09,313.02,317.22,312.88,317.22,312.88z"/>
			<path id="XMLID_1032_" class="st3" d="M290.94,295.11c0,0,19.57-0.22,48.93-0.54c14.68-0.09,31.8-0.19,50.15-0.3
				c18.35-0.04,37.92-0.08,57.49-0.13c19.57,0.04,39.14,0.09,57.49,0.13c18.35,0.11,35.47,0.21,50.15,0.3
				c29.36,0.33,48.93,0.55,48.93,0.55s-19.57,0.22-48.93,0.55c-14.68,0.09-31.8,0.19-50.15,0.3c-18.35,0.04-37.92,0.08-57.49,0.13
				c-19.57-0.04-39.14-0.09-57.49-0.13c-18.35-0.11-35.47-0.21-50.15-0.3C310.51,295.32,290.94,295.11,290.94,295.11z"/>
			<path id="XMLID_1031_" class="st3" d="M268.75,329.49c0,0,5.55-0.14,15.28-0.38c9.72-0.16,23.61-0.54,40.27-0.71
				c16.66-0.16,36.1-0.52,56.93-0.59c20.83-0.08,43.05-0.17,65.27-0.26c22.22,0.09,44.44,0.17,65.27,0.25
				c20.83,0.06,40.27,0.43,56.93,0.59c16.66,0.17,30.55,0.56,40.27,0.71c9.72,0.24,15.28,0.38,15.28,0.38s-5.55,0.14-15.28,0.38
				c-9.72,0.16-23.61,0.54-40.27,0.71c-16.66,0.16-36.1,0.53-56.93,0.59c-20.83,0.08-43.05,0.17-65.27,0.25
				c-22.22-0.09-44.44-0.18-65.27-0.26c-20.83-0.07-40.27-0.43-56.93-0.59c-16.66-0.18-30.55-0.56-40.27-0.71
				C274.31,329.63,268.75,329.49,268.75,329.49z"/>
			<path id="XMLID_1030_" class="st3" d="M268.75,336.14c0,0,5.55-0.14,15.28-0.38c9.72-0.16,23.61-0.54,40.27-0.71
				c16.66-0.16,36.1-0.52,56.93-0.59c20.83-0.08,43.05-0.17,65.27-0.26c22.22,0.09,44.44,0.17,65.27,0.25
				c20.83,0.06,40.27,0.43,56.93,0.59c16.66,0.17,30.55,0.56,40.27,0.71c9.72,0.24,15.28,0.38,15.28,0.38s-5.55,0.14-15.28,0.38
				c-9.72,0.16-23.61,0.54-40.27,0.71c-16.66,0.16-36.1,0.53-56.93,0.59c-20.83,0.08-43.05,0.17-65.27,0.25
				c-22.22-0.09-44.44-0.18-65.27-0.26c-20.83-0.07-40.27-0.43-56.93-0.59c-16.66-0.18-30.55-0.56-40.27-0.71
				C274.31,336.27,268.75,336.14,268.75,336.14z"/>
			<path id="XMLID_1029_" class="st3" d="M257.62,345.44c0,0,6.06-0.14,16.67-0.38c10.61-0.16,25.77-0.54,43.96-0.71
				c18.19-0.16,39.41-0.52,62.15-0.59c22.74-0.08,46.99-0.17,71.24-0.26c24.25,0.09,48.51,0.17,71.24,0.25
				c22.74,0.06,43.96,0.43,62.15,0.59c18.19,0.17,33.35,0.56,43.96,0.71c10.61,0.24,16.67,0.38,16.67,0.38s-6.06,0.14-16.67,0.38
				c-10.61,0.16-25.77,0.54-43.96,0.71c-18.19,0.16-39.41,0.53-62.15,0.59c-22.74,0.08-46.99,0.17-71.24,0.25
				c-24.25-0.09-48.51-0.18-71.24-0.26c-22.74-0.07-43.96-0.43-62.15-0.59c-18.19-0.18-33.35-0.56-43.96-0.71
				C263.68,345.58,257.62,345.44,257.62,345.44z"/>
			<path id="XMLID_1028_" class="st3" d="M257.62,355.41c0,0,6.06-0.14,16.67-0.38c10.61-0.16,25.77-0.54,43.96-0.71
				c18.19-0.16,39.41-0.52,62.15-0.59c22.74-0.08,46.99-0.17,71.24-0.26c24.25,0.09,48.51,0.17,71.24,0.25
				c22.74,0.06,43.96,0.43,62.15,0.59c18.19,0.17,33.35,0.56,43.96,0.71c10.61,0.24,16.67,0.38,16.67,0.38s-6.06,0.14-16.67,0.38
				c-10.61,0.16-25.77,0.54-43.96,0.71c-18.19,0.16-39.41,0.53-62.15,0.59c-22.74,0.08-46.99,0.17-71.24,0.25
				c-24.25-0.09-48.51-0.18-71.24-0.26c-22.74-0.07-43.96-0.43-62.15-0.59c-18.19-0.18-33.35-0.56-43.96-0.71
				C263.68,355.54,257.62,355.41,257.62,355.41z"/>
			<path id="XMLID_1027_" class="st3" d="M244.17,364.04c0,0,6.53-0.14,17.96-0.38c11.43-0.16,27.75-0.54,47.35-0.71
				c19.59-0.16,42.45-0.52,66.94-0.59c24.49-0.08,50.61-0.17,76.73-0.26c26.12,0.09,52.24,0.17,76.73,0.25
				c24.49,0.06,47.35,0.43,66.94,0.59c19.59,0.17,35.92,0.56,47.35,0.71c11.43,0.24,17.96,0.38,17.96,0.38s-6.53,0.14-17.96,0.38
				c-11.43,0.16-27.75,0.54-47.35,0.71c-19.59,0.16-42.45,0.53-66.94,0.59c-24.49,0.08-50.61,0.17-76.73,0.25
				c-26.12-0.09-52.24-0.18-76.73-0.26c-24.49-0.07-47.35-0.43-66.94-0.59c-19.59-0.18-35.92-0.56-47.35-0.71
				C250.7,364.18,244.17,364.04,244.17,364.04z"/>
			<path id="XMLID_1026_" class="st3" d="M228.88,373.35c0,0,7.08-0.14,19.47-0.38c12.39-0.16,30.09-0.54,51.34-0.71
				c21.24-0.16,46.03-0.52,72.58-0.59c26.55-0.08,54.88-0.17,83.2-0.26c28.32,0.09,56.65,0.17,83.2,0.25
				c26.55,0.06,51.34,0.43,72.58,0.59c21.24,0.17,38.94,0.56,51.34,0.71c12.39,0.24,19.47,0.38,19.47,0.38s-7.08,0.14-19.47,0.38
				c-12.39,0.16-30.09,0.54-51.34,0.71c-21.24,0.16-46.03,0.53-72.58,0.59c-26.55,0.08-54.88,0.17-83.2,0.25
				c-28.32-0.09-56.65-0.18-83.2-0.26c-26.55-0.07-51.34-0.43-72.58-0.59c-21.24-0.18-38.94-0.56-51.34-0.71
				C235.96,373.48,228.88,373.35,228.88,373.35z"/>
			<path id="XMLID_1025_" class="st3" d="M228.88,436.47c0,0,1.77-0.05,5.09-0.16c3.32-0.09,8.19-0.23,14.38-0.41
				c12.39-0.25,30.09-0.77,51.34-1.1c10.62-0.16,22.13-0.32,34.3-0.5c12.17-0.12,25-0.26,38.28-0.39c13.28-0.08,27-0.17,40.94-0.25
				c13.94-0.03,28.1-0.07,42.26-0.1c14.16,0.03,28.32,0.07,42.26,0.1c13.94,0.08,27.66,0.17,40.94,0.25
				c26.55,0.2,51.34,0.52,72.58,0.89c21.24,0.32,38.94,0.85,51.34,1.1c6.2,0.18,11.06,0.31,14.38,0.41c3.32,0.1,5.09,0.16,5.09,0.16
				s-1.77,0.05-5.09,0.16c-3.32,0.09-8.19,0.23-14.38,0.41c-12.39,0.25-30.09,0.78-51.34,1.1c-21.24,0.38-46.03,0.69-72.58,0.89
				c-13.28,0.08-27,0.16-40.94,0.25c-13.94,0.03-28.1,0.07-42.26,0.1c-14.16-0.03-28.32-0.07-42.26-0.1
				c-13.94-0.09-27.66-0.17-40.94-0.25c-13.28-0.14-26.11-0.27-38.28-0.39c-12.17-0.18-23.68-0.35-34.3-0.5
				c-21.24-0.33-38.94-0.85-51.34-1.1c-6.2-0.17-11.06-0.31-14.38-0.41C230.65,436.53,228.88,436.47,228.88,436.47z"/>
			<path id="XMLID_1024_" class="st3" d="M212.94,381.32c0,0,7.56-0.2,20.79-0.56c13.23-0.25,32.12-0.77,54.8-1.1
				c11.34-0.16,23.62-0.32,36.61-0.5c12.99-0.12,26.69-0.26,40.86-0.39c14.17-0.08,28.82-0.17,43.7-0.25
				c14.88-0.03,30-0.07,45.11-0.1c15.12,0.03,30.23,0.07,45.11,0.1c14.88,0.08,29.52,0.17,43.7,0.25c28.34,0.2,54.8,0.52,77.47,0.89
				c22.68,0.32,41.57,0.85,54.8,1.1c13.23,0.36,20.79,0.57,20.79,0.57s-7.56,0.21-20.79,0.57c-13.23,0.25-32.12,0.78-54.8,1.1
				c-22.68,0.38-49.13,0.69-77.47,0.89c-14.17,0.08-28.82,0.16-43.7,0.25c-14.88,0.03-30,0.07-45.11,0.1
				c-15.12-0.03-30.23-0.07-45.11-0.1c-14.88-0.09-29.52-0.17-43.7-0.25c-14.17-0.14-27.87-0.27-40.86-0.39
				c-12.99-0.18-25.27-0.35-36.61-0.5c-22.68-0.33-41.57-0.85-54.8-1.1C220.49,381.53,212.94,381.32,212.94,381.32z"/>
			<path id="XMLID_1023_" class="st3" d="M194.99,387.97c0,0,7.84-0.2,21.56-0.56c6.86-0.14,15.19-0.32,24.74-0.51
				c9.55-0.21,20.33-0.44,32.09-0.55c11.76-0.15,24.5-0.31,37.97-0.48c13.47-0.17,27.68-0.38,42.38-0.44
				c14.7-0.08,29.89-0.17,45.32-0.25c15.43-0.03,31.11-0.07,46.79-0.1c15.68,0.03,31.35,0.07,46.79,0.1
				c15.43,0.08,30.62,0.17,45.32,0.25c29.4,0.17,56.83,0.67,80.35,0.92c11.76,0.12,22.54,0.34,32.09,0.55
				c9.55,0.2,17.88,0.37,24.74,0.52c13.72,0.36,21.56,0.57,21.56,0.57s-7.84,0.21-21.56,0.57c-6.86,0.14-15.19,0.32-24.74,0.52
				c-9.55,0.21-20.33,0.44-32.09,0.55c-23.52,0.25-50.95,0.75-80.35,0.92c-14.7,0.08-29.88,0.16-45.32,0.25
				c-15.43,0.03-31.11,0.07-46.79,0.1c-15.68-0.03-31.35-0.07-46.79-0.1c-15.43-0.09-30.62-0.17-45.32-0.25
				c-14.7-0.06-28.91-0.28-42.38-0.44c-13.47-0.17-26.21-0.33-37.97-0.48c-11.76-0.11-22.54-0.35-32.09-0.55
				c-9.55-0.2-17.88-0.37-24.74-0.51C202.83,388.17,194.99,387.97,194.99,387.97z"/>
			<path id="XMLID_1022_" class="st3" d="M194.99,428.5c0,0,7.84-0.2,21.56-0.56c6.86-0.14,15.19-0.32,24.74-0.51
				c9.55-0.21,20.33-0.44,32.09-0.55c11.76-0.15,24.5-0.31,37.97-0.48c13.47-0.17,27.68-0.38,42.38-0.44
				c14.7-0.08,29.89-0.17,45.32-0.25c15.43-0.03,31.11-0.07,46.79-0.1c15.68,0.03,31.35,0.07,46.79,0.1
				c15.43,0.08,30.62,0.17,45.32,0.25c29.4,0.17,56.83,0.67,80.35,0.92c11.76,0.12,22.54,0.34,32.09,0.55
				c9.55,0.2,17.88,0.37,24.74,0.52c13.72,0.36,21.56,0.57,21.56,0.57s-7.84,0.21-21.56,0.57c-6.86,0.14-15.19,0.32-24.74,0.52
				c-9.55,0.21-20.33,0.44-32.09,0.55c-23.52,0.25-50.95,0.75-80.35,0.92c-14.7,0.08-29.88,0.16-45.32,0.25
				c-15.43,0.03-31.11,0.07-46.79,0.1c-15.68-0.03-31.35-0.07-46.79-0.1c-15.43-0.09-30.62-0.17-45.32-0.25
				c-14.7-0.06-28.91-0.28-42.38-0.44c-13.47-0.17-26.21-0.33-37.97-0.48c-11.76-0.11-22.54-0.35-32.09-0.55
				c-9.55-0.2-17.88-0.37-24.74-0.51C202.83,428.7,194.99,428.5,194.99,428.5z"/>
			<path id="XMLID_1021_" class="st3" d="M194.99,444.45c0,0,7.84-0.2,21.56-0.56c6.86-0.14,15.19-0.32,24.74-0.51
				c9.55-0.21,20.33-0.44,32.09-0.55c11.76-0.15,24.5-0.31,37.97-0.48c13.47-0.17,27.68-0.38,42.38-0.44
				c14.7-0.08,29.89-0.17,45.32-0.25c15.43-0.03,31.11-0.07,46.79-0.1c15.68,0.03,31.35,0.07,46.79,0.1
				c15.43,0.08,30.62,0.17,45.32,0.25c29.4,0.17,56.83,0.67,80.35,0.92c11.76,0.12,22.54,0.34,32.09,0.55
				c9.55,0.2,17.88,0.37,24.74,0.52c13.72,0.36,21.56,0.57,21.56,0.57s-7.84,0.21-21.56,0.57c-6.86,0.14-15.19,0.32-24.74,0.52
				c-9.55,0.21-20.33,0.44-32.09,0.55c-23.52,0.25-50.95,0.75-80.35,0.92c-14.7,0.08-29.88,0.16-45.32,0.25
				c-15.43,0.03-31.11,0.07-46.79,0.1c-15.68-0.03-31.35-0.07-46.79-0.1c-15.43-0.09-30.62-0.17-45.32-0.25
				c-14.7-0.06-28.91-0.28-42.38-0.44c-13.47-0.17-26.21-0.33-37.97-0.48c-11.76-0.11-22.54-0.35-32.09-0.55
				c-9.55-0.2-17.88-0.37-24.74-0.51C202.83,444.65,194.99,444.45,194.99,444.45z"/>
			<path id="XMLID_1020_" class="st3" d="M194.99,452.42c0,0,7.84-0.2,21.56-0.56c6.86-0.14,15.19-0.32,24.74-0.51
				c9.55-0.21,20.33-0.44,32.09-0.55c11.76-0.15,24.5-0.31,37.97-0.48c13.47-0.17,27.68-0.38,42.38-0.44
				c14.7-0.08,29.89-0.17,45.32-0.25c15.43-0.03,31.11-0.07,46.79-0.1c15.68,0.03,31.35,0.07,46.79,0.1
				c15.43,0.08,30.62,0.17,45.32,0.25c29.4,0.17,56.83,0.67,80.35,0.92c11.76,0.12,22.54,0.34,32.09,0.55
				c9.55,0.2,17.88,0.37,24.74,0.52c13.72,0.36,21.56,0.57,21.56,0.57s-7.84,0.21-21.56,0.57c-6.86,0.14-15.19,0.32-24.74,0.52
				c-9.55,0.21-20.33,0.44-32.09,0.55c-23.52,0.25-50.95,0.75-80.35,0.92c-14.7,0.08-29.88,0.16-45.32,0.25
				c-15.43,0.03-31.11,0.07-46.79,0.1c-15.68-0.03-31.35-0.07-46.79-0.1c-15.43-0.09-30.62-0.17-45.32-0.25
				c-14.7-0.06-28.91-0.28-42.38-0.44c-13.47-0.17-26.21-0.33-37.97-0.48c-11.76-0.11-22.54-0.35-32.09-0.55
				c-9.55-0.2-17.88-0.37-24.74-0.51C202.83,452.62,194.99,452.42,194.99,452.42z"/>
			<path id="XMLID_1019_" class="st3" d="M194.99,460.45c0,0,7.84-0.2,21.56-0.56c6.86-0.14,15.19-0.32,24.74-0.51
				c9.55-0.21,20.33-0.44,32.09-0.55c11.76-0.15,24.5-0.31,37.97-0.48c13.47-0.17,27.68-0.38,42.38-0.44
				c14.7-0.08,29.89-0.17,45.32-0.25c15.43-0.03,31.11-0.07,46.79-0.1c15.68,0.03,31.35,0.07,46.79,0.1
				c15.43,0.08,30.62,0.17,45.32,0.25c29.4,0.17,56.83,0.67,80.35,0.92c11.76,0.12,22.54,0.34,32.09,0.55
				c9.55,0.2,17.88,0.37,24.74,0.52c13.72,0.36,21.56,0.57,21.56,0.57s-7.84,0.21-21.56,0.57c-6.86,0.14-15.19,0.32-24.74,0.52
				c-9.55,0.21-20.33,0.44-32.09,0.55c-23.52,0.25-50.95,0.75-80.35,0.92c-14.7,0.08-29.88,0.16-45.32,0.25
				c-15.43,0.03-31.11,0.07-46.79,0.1c-15.68-0.03-31.35-0.07-46.79-0.1c-15.43-0.09-30.62-0.17-45.32-0.25
				c-14.7-0.06-28.91-0.28-42.38-0.44c-13.47-0.17-26.21-0.33-37.97-0.48c-11.76-0.11-22.54-0.35-32.09-0.55
				c-9.55-0.2-17.88-0.37-24.74-0.51C202.83,460.65,194.99,460.45,194.99,460.45z"/>
			<path id="XMLID_1018_" class="st3" d="M194.99,475.73c0,0,7.84-0.2,21.56-0.56c6.86-0.14,15.19-0.32,24.74-0.51
				c9.55-0.21,20.33-0.44,32.09-0.55c11.76-0.15,24.5-0.31,37.97-0.48c13.47-0.17,27.68-0.38,42.38-0.44
				c14.7-0.08,29.89-0.17,45.32-0.25c15.43-0.03,31.11-0.07,46.79-0.1c15.68,0.03,31.35,0.07,46.79,0.1
				c15.43,0.08,30.62,0.17,45.32,0.25c29.4,0.17,56.83,0.67,80.35,0.92c11.76,0.12,22.54,0.34,32.09,0.55
				c9.55,0.2,17.88,0.37,24.74,0.52c13.72,0.36,21.56,0.57,21.56,0.57s-7.84,0.21-21.56,0.57c-6.86,0.14-15.19,0.32-24.74,0.52
				c-9.55,0.21-20.33,0.44-32.09,0.55c-23.52,0.25-50.95,0.75-80.35,0.92c-14.7,0.08-29.88,0.16-45.32,0.25
				c-15.43,0.03-31.11,0.07-46.79,0.1c-15.68-0.03-31.35-0.07-46.79-0.1c-15.43-0.09-30.62-0.17-45.32-0.25
				c-14.7-0.06-28.91-0.28-42.38-0.44c-13.47-0.17-26.21-0.33-37.97-0.48c-11.76-0.11-22.54-0.35-32.09-0.55
				c-9.55-0.2-17.88-0.37-24.74-0.51C202.83,475.94,194.99,475.73,194.99,475.73z"/>
			<path id="XMLID_1017_" class="st3" d="M194.99,489.13c0,0,7.84-0.2,21.56-0.56c6.86-0.14,15.19-0.32,24.74-0.51
				c9.55-0.21,20.33-0.44,32.09-0.55c11.76-0.15,24.5-0.31,37.97-0.48c13.47-0.17,27.68-0.38,42.38-0.44
				c14.7-0.08,29.89-0.17,45.32-0.25c15.43-0.03,31.11-0.07,46.79-0.1c15.68,0.03,31.35,0.07,46.79,0.1
				c15.43,0.08,30.62,0.17,45.32,0.25c29.4,0.17,56.83,0.67,80.35,0.92c11.76,0.12,22.54,0.34,32.09,0.55
				c9.55,0.2,17.88,0.37,24.74,0.52c13.72,0.36,21.56,0.57,21.56,0.57s-7.84,0.21-21.56,0.57c-6.86,0.14-15.19,0.32-24.74,0.52
				c-9.55,0.21-20.33,0.44-32.09,0.55c-23.52,0.25-50.95,0.75-80.35,0.92c-14.7,0.08-29.88,0.16-45.32,0.25
				c-15.43,0.03-31.11,0.07-46.79,0.1c-15.68-0.03-31.35-0.07-46.79-0.1c-15.43-0.09-30.62-0.17-45.32-0.25
				c-14.7-0.06-28.91-0.28-42.38-0.44c-13.47-0.17-26.21-0.33-37.97-0.48c-11.76-0.11-22.54-0.35-32.09-0.55
				c-9.55-0.2-17.88-0.37-24.74-0.51C202.83,489.33,194.99,489.13,194.99,489.13z"/>
			<path id="XMLID_1016_" class="st3" d="M194.99,495.38c0,0,7.84-0.2,21.56-0.56c6.86-0.14,15.19-0.32,24.74-0.51
				c9.55-0.21,20.33-0.44,32.09-0.55c11.76-0.15,24.5-0.31,37.97-0.48c13.47-0.17,27.68-0.38,42.38-0.44
				c14.7-0.08,29.89-0.17,45.32-0.25c15.43-0.03,31.11-0.07,46.79-0.1c15.68,0.03,31.35,0.07,46.79,0.1
				c15.43,0.08,30.62,0.17,45.32,0.25c29.4,0.17,56.83,0.67,80.35,0.92c11.76,0.12,22.54,0.34,32.09,0.55
				c9.55,0.2,17.88,0.37,24.74,0.52c13.72,0.36,21.56,0.57,21.56,0.57s-7.84,0.21-21.56,0.57c-6.86,0.14-15.19,0.32-24.74,0.52
				c-9.55,0.21-20.33,0.44-32.09,0.55c-23.52,0.25-50.95,0.75-80.35,0.92c-14.7,0.08-29.88,0.16-45.32,0.25
				c-15.43,0.03-31.11,0.07-46.79,0.1c-15.68-0.03-31.35-0.07-46.79-0.1c-15.43-0.09-30.62-0.17-45.32-0.25
				c-14.7-0.06-28.91-0.28-42.38-0.44c-13.47-0.17-26.21-0.33-37.97-0.48c-11.76-0.11-22.54-0.35-32.09-0.55
				c-9.55-0.2-17.88-0.37-24.74-0.51C202.83,495.59,194.99,495.38,194.99,495.38z"/>
			<path id="XMLID_1015_" class="st3" d="M194.99,467.76c0,0,7.84-0.2,21.56-0.56c6.86-0.14,15.19-0.32,24.74-0.51
				c9.55-0.21,20.33-0.44,32.09-0.55c11.76-0.15,24.5-0.31,37.97-0.48c13.47-0.17,27.68-0.38,42.38-0.44
				c14.7-0.08,29.89-0.17,45.32-0.25c15.43-0.03,31.11-0.07,46.79-0.1c15.68,0.03,31.35,0.07,46.79,0.1
				c15.43,0.08,30.62,0.17,45.32,0.25c29.4,0.17,56.83,0.67,80.35,0.92c11.76,0.12,22.54,0.34,32.09,0.55
				c9.55,0.2,17.88,0.37,24.74,0.52c13.72,0.36,21.56,0.57,21.56,0.57s-7.84,0.21-21.56,0.57c-6.86,0.14-15.19,0.32-24.74,0.52
				c-9.55,0.21-20.33,0.44-32.09,0.55c-23.52,0.25-50.95,0.75-80.35,0.92c-14.7,0.08-29.88,0.16-45.32,0.25
				c-15.43,0.03-31.11,0.07-46.79,0.1c-15.68-0.03-31.35-0.07-46.79-0.1c-15.43-0.09-30.62-0.17-45.32-0.25
				c-14.7-0.06-28.91-0.28-42.38-0.44c-13.47-0.17-26.21-0.33-37.97-0.48c-11.76-0.11-22.54-0.35-32.09-0.55
				c-9.55-0.2-17.88-0.37-24.74-0.51C202.83,467.96,194.99,467.76,194.99,467.76z"/>
			<path id="XMLID_1014_" class="st3" d="M194.99,483.09c0,0,7.84-0.2,21.56-0.56c6.86-0.14,15.19-0.32,24.74-0.51
				c9.55-0.21,20.33-0.44,32.09-0.55c11.76-0.15,24.5-0.31,37.97-0.48c13.47-0.17,27.68-0.38,42.38-0.44
				c14.7-0.08,29.89-0.17,45.32-0.25c15.43-0.03,31.11-0.07,46.79-0.1c15.68,0.03,31.35,0.07,46.79,0.1
				c15.43,0.08,30.62,0.17,45.32,0.25c29.4,0.17,56.83,0.67,80.35,0.92c11.76,0.12,22.54,0.34,32.09,0.55
				c9.55,0.2,17.88,0.37,24.74,0.52c13.72,0.36,21.56,0.57,21.56,0.57s-7.84,0.21-21.56,0.57c-6.86,0.14-15.19,0.32-24.74,0.52
				c-9.55,0.21-20.33,0.44-32.09,0.55c-23.52,0.25-50.95,0.75-80.35,0.92c-14.7,0.08-29.88,0.16-45.32,0.25
				c-15.43,0.03-31.11,0.07-46.79,0.1c-15.68-0.03-31.35-0.07-46.79-0.1c-15.43-0.09-30.62-0.17-45.32-0.25
				c-14.7-0.06-28.91-0.28-42.38-0.44c-13.47-0.17-26.21-0.33-37.97-0.48c-11.76-0.11-22.54-0.35-32.09-0.55
				c-9.55-0.2-17.88-0.37-24.74-0.51C202.83,483.3,194.99,483.09,194.99,483.09z"/>
			<path id="XMLID_1013_" class="st3" d="M194.99,502.31c0,0,7.84-0.2,21.56-0.56c6.86-0.14,15.19-0.32,24.74-0.51
				c9.55-0.21,20.33-0.44,32.09-0.55c11.76-0.15,24.5-0.31,37.97-0.48c13.47-0.17,27.68-0.38,42.38-0.44
				c14.7-0.08,29.89-0.17,45.32-0.25c15.43-0.03,31.11-0.07,46.79-0.1c15.68,0.03,31.35,0.07,46.79,0.1
				c15.43,0.08,30.62,0.17,45.32,0.25c29.4,0.17,56.83,0.67,80.35,0.92c11.76,0.12,22.54,0.34,32.09,0.55
				c9.55,0.2,17.88,0.37,24.74,0.52c13.72,0.36,21.56,0.57,21.56,0.57s-7.84,0.21-21.56,0.57c-6.86,0.14-15.19,0.32-24.74,0.52
				c-9.55,0.21-20.33,0.44-32.09,0.55c-23.52,0.25-50.95,0.75-80.35,0.92c-14.7,0.08-29.88,0.16-45.32,0.25
				c-15.43,0.03-31.11,0.07-46.79,0.1c-15.68-0.03-31.35-0.07-46.79-0.1c-15.43-0.09-30.62-0.17-45.32-0.25
				c-14.7-0.06-28.91-0.28-42.38-0.44c-13.47-0.17-26.21-0.33-37.97-0.48c-11.76-0.11-22.54-0.35-32.09-0.55
				c-9.55-0.2-17.88-0.37-24.74-0.51C202.83,502.51,194.99,502.31,194.99,502.31z"/>
			<path id="XMLID_1012_" class="st3" d="M194.99,421.19c0,0,7.84-0.2,21.56-0.56c6.86-0.14,15.19-0.32,24.74-0.51
				c9.55-0.21,20.33-0.44,32.09-0.55c11.76-0.15,24.5-0.31,37.97-0.48c13.47-0.17,27.68-0.38,42.38-0.44
				c14.7-0.08,29.89-0.17,45.32-0.25c15.43-0.03,31.11-0.07,46.79-0.1c15.68,0.03,31.35,0.07,46.79,0.1
				c15.43,0.08,30.62,0.17,45.32,0.25c29.4,0.17,56.83,0.67,80.35,0.92c11.76,0.12,22.54,0.34,32.09,0.55
				c9.55,0.2,17.88,0.37,24.74,0.52c13.72,0.36,21.56,0.57,21.56,0.57s-7.84,0.21-21.56,0.57c-6.86,0.14-15.19,0.32-24.74,0.52
				c-9.55,0.21-20.33,0.44-32.09,0.55c-23.52,0.25-50.95,0.75-80.35,0.92c-14.7,0.08-29.88,0.16-45.32,0.25
				c-15.43,0.03-31.11,0.07-46.79,0.1c-15.68-0.03-31.35-0.07-46.79-0.1c-15.43-0.09-30.62-0.17-45.32-0.25
				c-14.7-0.06-28.91-0.28-42.38-0.44c-13.47-0.17-26.21-0.33-37.97-0.48c-11.76-0.11-22.54-0.35-32.09-0.55
				c-9.55-0.2-17.88-0.37-24.74-0.51C202.83,421.39,194.99,421.19,194.99,421.19z"/>
			<path id="XMLID_1011_" class="st3" d="M194.99,413.22c0,0,7.84-0.2,21.56-0.56c6.86-0.14,15.19-0.32,24.74-0.51
				c9.55-0.21,20.33-0.44,32.09-0.55c11.76-0.15,24.5-0.31,37.97-0.48c13.47-0.17,27.68-0.38,42.38-0.44
				c14.7-0.08,29.89-0.17,45.32-0.25c15.43-0.03,31.11-0.07,46.79-0.1c15.68,0.03,31.35,0.07,46.79,0.1
				c15.43,0.08,30.62,0.17,45.32,0.25c29.4,0.17,56.83,0.67,80.35,0.92c11.76,0.12,22.54,0.34,32.09,0.55
				c9.55,0.2,17.88,0.37,24.74,0.52c13.72,0.36,21.56,0.57,21.56,0.57s-7.84,0.21-21.56,0.57c-6.86,0.14-15.19,0.32-24.74,0.52
				c-9.55,0.21-20.33,0.44-32.09,0.55c-23.52,0.25-50.95,0.75-80.35,0.92c-14.7,0.08-29.88,0.16-45.32,0.25
				c-15.43,0.03-31.11,0.07-46.79,0.1c-15.68-0.03-31.35-0.07-46.79-0.1c-15.43-0.09-30.62-0.17-45.32-0.25
				c-14.7-0.06-28.91-0.28-42.38-0.44c-13.47-0.17-26.21-0.33-37.97-0.48c-11.76-0.11-22.54-0.35-32.09-0.55
				c-9.55-0.2-17.88-0.37-24.74-0.51C202.83,413.42,194.99,413.22,194.99,413.22z"/>
			<path id="XMLID_1010_" class="st3" d="M168.42,396.6c0,0,8.58-0.2,23.58-0.56c7.5-0.14,16.62-0.32,27.07-0.51
				c10.45-0.21,22.24-0.44,35.11-0.55c12.86-0.15,26.8-0.31,41.54-0.48c14.74-0.17,30.28-0.38,46.36-0.44
				c16.08-0.08,32.7-0.17,49.58-0.25c16.88-0.03,34.04-0.07,51.19-0.1c17.15,0.03,34.3,0.07,51.19,0.1
				c16.88,0.08,33.5,0.17,49.58,0.25c32.16,0.17,62.17,0.67,87.9,0.92c12.86,0.12,24.66,0.34,35.11,0.55
				c10.45,0.2,19.56,0.37,27.07,0.52c15.01,0.36,23.58,0.57,23.58,0.57s-8.58,0.21-23.58,0.57c-7.5,0.14-16.62,0.32-27.07,0.52
				c-10.45,0.21-22.24,0.44-35.11,0.55c-25.73,0.25-55.74,0.75-87.9,0.92c-16.08,0.08-32.7,0.16-49.58,0.25
				c-16.88,0.03-34.04,0.07-51.19,0.1c-17.15-0.03-34.3-0.07-51.19-0.1c-16.88-0.09-33.5-0.17-49.58-0.25
				c-16.08-0.06-31.62-0.28-46.36-0.44c-14.74-0.17-28.68-0.33-41.54-0.48c-12.86-0.11-24.66-0.35-35.11-0.55
				c-10.45-0.2-19.56-0.37-27.07-0.51C176.99,396.81,168.42,396.6,168.42,396.6z"/>
			<path id="XMLID_1009_" class="st3" d="M168.42,405.24c0,0,8.58-0.2,23.58-0.56c7.5-0.14,16.62-0.32,27.07-0.51
				c10.45-0.21,22.24-0.44,35.11-0.55c12.86-0.15,26.8-0.31,41.54-0.48c14.74-0.17,30.28-0.38,46.36-0.44
				c16.08-0.08,32.7-0.17,49.58-0.25c16.88-0.03,34.04-0.07,51.19-0.1c17.15,0.03,34.3,0.07,51.19,0.1
				c16.88,0.08,33.5,0.17,49.58,0.25c32.16,0.17,62.17,0.67,87.9,0.92c12.86,0.12,24.66,0.34,35.11,0.55
				c10.45,0.2,19.56,0.37,27.07,0.52c15.01,0.36,23.58,0.57,23.58,0.57s-8.58,0.21-23.58,0.57c-7.5,0.14-16.62,0.32-27.07,0.52
				c-10.45,0.21-22.24,0.44-35.11,0.55c-25.73,0.25-55.74,0.75-87.9,0.92c-16.08,0.08-32.7,0.16-49.58,0.25
				c-16.88,0.03-34.04,0.07-51.19,0.1c-17.15-0.03-34.3-0.07-51.19-0.1c-16.88-0.09-33.5-0.17-49.58-0.25
				c-16.08-0.06-31.62-0.28-46.36-0.44c-14.74-0.17-28.68-0.33-41.54-0.48c-12.86-0.11-24.66-0.35-35.11-0.55
				c-10.45-0.2-19.56-0.37-27.07-0.51C176.99,405.45,168.42,405.24,168.42,405.24z"/>
		</g>
		<g id="XMLID_978_">
			<path id="XMLID_1007_" class="st3" d="M523.35,727.43c0,0-2.4,0.07-6.61,0.19c-4.21,0.09-10.22,0.21-17.43,0.36
				c-7.21,0.08-15.63,0.26-24.64,0.3c-9.02,0.04-18.63,0.08-28.25,0.13c-9.62-0.04-19.23-0.09-28.25-0.13
				c-9.02-0.03-17.43-0.22-24.64-0.3c-7.21-0.09-13.22-0.28-17.43-0.36c-4.21-0.12-6.61-0.19-6.61-0.19s2.4-0.07,6.61-0.19
				c4.21-0.08,10.22-0.27,17.43-0.36c7.21-0.08,15.63-0.26,24.64-0.3c9.02-0.04,18.63-0.08,28.25-0.13
				c9.62,0.04,19.23,0.09,28.25,0.13c9.02,0.04,17.43,0.22,24.64,0.3c7.21,0.15,13.22,0.27,17.43,0.36
				C520.94,727.36,523.35,727.43,523.35,727.43z"/>
			<path id="XMLID_1006_" class="st3" d="M523.35,721.78c0,0-2.4,0.07-6.61,0.19c-4.21,0.09-10.22,0.21-17.43,0.36
				c-7.21,0.08-15.63,0.26-24.64,0.3c-9.02,0.04-18.63,0.09-28.25,0.13c-9.62-0.04-19.23-0.09-28.25-0.13
				c-9.02-0.03-17.43-0.22-24.64-0.3c-7.21-0.09-13.22-0.28-17.43-0.36c-4.21-0.12-6.61-0.19-6.61-0.19s2.4-0.07,6.61-0.19
				c4.21-0.08,10.22-0.27,17.43-0.36c7.21-0.08,15.63-0.26,24.64-0.3c9.02-0.04,18.63-0.08,28.25-0.13
				c9.62,0.04,19.23,0.09,28.25,0.13c9.02,0.04,17.43,0.22,24.64,0.3c7.21,0.15,13.22,0.27,17.43,0.36
				C520.94,721.71,523.35,721.78,523.35,721.78z"/>
			<path id="XMLID_1005_" class="st3" d="M523.35,689.89c0,0-2.4,0.07-6.61,0.19c-4.21,0.09-10.22,0.21-17.43,0.36
				c-7.21,0.08-15.63,0.26-24.64,0.3c-9.02,0.04-18.63,0.08-28.25,0.13c-9.62-0.04-19.23-0.09-28.25-0.13
				c-9.02-0.03-17.43-0.22-24.64-0.3c-7.21-0.09-13.22-0.28-17.43-0.36c-4.21-0.12-6.61-0.19-6.61-0.19s2.4-0.07,6.61-0.19
				c4.21-0.08,10.22-0.27,17.43-0.36c7.21-0.08,15.63-0.26,24.64-0.3c9.02-0.04,18.63-0.08,28.25-0.13
				c9.62,0.04,19.23,0.09,28.25,0.13c9.02,0.04,17.43,0.22,24.64,0.3c7.21,0.15,13.22,0.27,17.43,0.36
				C520.94,689.82,523.35,689.89,523.35,689.89z"/>
			<path id="XMLID_1004_" class="st3" d="M568.47,714.7c0,0-3.87,0.07-10.64,0.19c-6.77,0.09-16.44,0.21-28.05,0.36
				c-11.61,0.09-25.15,0.19-39.65,0.3c-14.51,0.04-29.98,0.08-45.46,0.13c-15.47-0.04-30.95-0.09-45.46-0.13
				c-14.51-0.11-28.05-0.21-39.65-0.3c-11.61-0.15-21.28-0.27-28.05-0.36c-6.77-0.12-10.64-0.19-10.64-0.19s3.87-0.07,10.64-0.19
				c6.77-0.09,16.44-0.21,28.05-0.36c11.61-0.09,25.15-0.19,39.65-0.3c14.51-0.04,29.98-0.08,45.46-0.13
				c15.47,0.04,30.95,0.09,45.46,0.13c14.51,0.11,28.05,0.21,39.65,0.3c11.61,0.15,21.28,0.27,28.05,0.36
				C564.6,714.63,568.47,714.7,568.47,714.7z"/>
			<path id="XMLID_1003_" class="st3" d="M568.47,707.16c0,0-3.87,0.07-10.64,0.19c-6.77,0.09-16.44,0.21-28.05,0.36
				c-11.61,0.09-25.15,0.19-39.65,0.3c-14.51,0.04-29.98,0.08-45.46,0.13c-15.47-0.04-30.95-0.09-45.46-0.13
				c-14.51-0.11-28.05-0.21-39.65-0.3c-11.61-0.15-21.28-0.27-28.05-0.36c-6.77-0.12-10.64-0.19-10.64-0.19s3.87-0.07,10.64-0.19
				c6.77-0.09,16.44-0.21,28.05-0.36c11.61-0.09,25.15-0.19,39.65-0.3c14.51-0.04,29.98-0.08,45.46-0.13
				c15.47,0.04,30.95,0.09,45.46,0.13c14.51,0.11,28.05,0.21,39.65,0.3c11.61,0.15,21.28,0.27,28.05,0.36
				C564.6,707.09,568.47,707.16,568.47,707.16z"/>
			<path id="XMLID_1002_" class="st3" d="M601.65,673.27c0,0-5,0.14-13.75,0.38c-8.75,0.16-21.25,0.54-36.25,0.71
				c-15,0.16-32.5,0.52-51.26,0.59c-18.75,0.08-38.75,0.17-58.76,0.26c-20-0.09-40-0.17-58.76-0.25
				c-18.75-0.06-36.25-0.43-51.26-0.59c-15-0.17-27.5-0.56-36.25-0.71c-8.75-0.24-13.75-0.38-13.75-0.38s5-0.14,13.75-0.38
				c8.75-0.16,21.25-0.54,36.25-0.71c15-0.16,32.5-0.53,51.26-0.59c18.75-0.08,38.75-0.17,58.76-0.25c20,0.09,40.01,0.18,58.76,0.26
				c18.75,0.07,36.25,0.43,51.26,0.59c15,0.18,27.5,0.56,36.25,0.71C596.65,673.14,601.65,673.27,601.65,673.27z"/>
			<path id="XMLID_1001_" class="st3" d="M568.47,683.24c0,0-3.87,0.14-10.64,0.38c-6.77,0.17-16.44,0.51-28.05,0.73
				c-11.61,0.25-25.15,0.46-39.65,0.59c-7.25,0.05-14.75,0.11-22.37,0.17c-7.62,0.02-15.35,0.04-23.09,0.07
				c-7.74-0.02-15.47-0.04-23.09-0.07c-7.62-0.06-15.11-0.11-22.37-0.16c-14.51-0.14-28.05-0.34-39.65-0.59
				c-11.61-0.22-21.28-0.57-28.05-0.74c-6.77-0.24-10.64-0.38-10.64-0.38s3.87-0.14,10.64-0.38c6.77-0.17,16.44-0.52,28.05-0.74
				c11.61-0.25,25.15-0.46,39.65-0.59c7.25-0.05,14.75-0.11,22.37-0.16c7.62-0.02,15.35-0.04,23.09-0.07
				c7.74,0.02,15.47,0.05,23.09,0.07c7.62,0.06,15.11,0.11,22.37,0.17c14.51,0.14,28.05,0.34,39.65,0.59
				c11.61,0.22,21.28,0.57,28.05,0.73C564.6,683.1,568.47,683.24,568.47,683.24z"/>
			<path id="XMLID_1000_" class="st3" d="M594.75,701.02c0,0-19.57,0.22-48.93,0.54c-14.68,0.09-31.8,0.19-50.15,0.3
				c-18.35,0.04-37.92,0.08-57.49,0.13c-19.57-0.04-39.14-0.09-57.49-0.13c-18.35-0.11-35.47-0.21-50.15-0.3
				c-29.36-0.33-48.93-0.55-48.93-0.55s19.57-0.22,48.93-0.55c14.68-0.09,31.8-0.19,50.15-0.3c18.35-0.04,37.92-0.08,57.49-0.13
				c19.57,0.04,39.14,0.09,57.49,0.13c18.35,0.11,35.47,0.21,50.15,0.3C575.18,700.8,594.75,701.02,594.75,701.02z"/>
			<path id="XMLID_999_" class="st3" d="M616.93,666.63c0,0-5.55,0.14-15.28,0.38c-9.72,0.16-23.61,0.54-40.27,0.71
				c-16.66,0.16-36.1,0.52-56.93,0.59c-20.83,0.08-43.05,0.17-65.27,0.26c-22.22-0.09-44.44-0.17-65.27-0.25
				c-20.83-0.06-40.27-0.43-56.93-0.59c-16.66-0.17-30.55-0.56-40.27-0.71c-9.72-0.24-15.28-0.38-15.28-0.38s5.55-0.14,15.28-0.38
				c9.72-0.16,23.61-0.54,40.27-0.71c16.66-0.16,36.1-0.53,56.93-0.59c20.83-0.08,43.05-0.17,65.27-0.25
				c22.22,0.09,44.44,0.18,65.27,0.26c20.83,0.07,40.27,0.43,56.93,0.59c16.66,0.18,30.55,0.56,40.27,0.71
				C611.38,666.49,616.93,666.63,616.93,666.63z"/>
			<path id="XMLID_998_" class="st3" d="M616.93,659.98c0,0-5.55,0.14-15.28,0.38c-9.72,0.16-23.61,0.54-40.27,0.71
				c-16.66,0.16-36.1,0.52-56.93,0.59c-20.83,0.08-43.05,0.17-65.27,0.26c-22.22-0.09-44.44-0.17-65.27-0.25
				c-20.83-0.06-40.27-0.43-56.93-0.59c-16.66-0.17-30.55-0.56-40.27-0.71c-9.72-0.24-15.28-0.38-15.28-0.38s5.55-0.14,15.28-0.38
				c9.72-0.16,23.61-0.54,40.27-0.71c16.66-0.16,36.1-0.53,56.93-0.59c20.83-0.08,43.05-0.17,65.27-0.25
				c22.22,0.09,44.44,0.18,65.27,0.26c20.83,0.07,40.27,0.43,56.93,0.59c16.66,0.18,30.55,0.56,40.27,0.71
				C611.38,659.85,616.93,659.98,616.93,659.98z"/>
			<path id="XMLID_997_" class="st3" d="M628.07,650.68c0,0-6.06,0.14-16.67,0.38c-10.61,0.16-25.77,0.54-43.96,0.71
				c-18.19,0.16-39.41,0.52-62.15,0.59c-22.74,0.08-46.99,0.17-71.24,0.26c-24.25-0.09-48.51-0.17-71.24-0.25
				c-22.74-0.06-43.96-0.43-62.15-0.59c-18.19-0.17-33.35-0.56-43.96-0.71c-10.61-0.24-16.67-0.38-16.67-0.38s6.06-0.14,16.67-0.38
				c10.61-0.16,25.77-0.54,43.96-0.71c18.19-0.16,39.41-0.53,62.15-0.59c22.74-0.08,46.99-0.17,71.24-0.25
				c24.25,0.09,48.51,0.18,71.24,0.26c22.74,0.07,43.96,0.43,62.15,0.59c18.19,0.18,33.35,0.56,43.96,0.71
				C622,650.54,628.07,650.68,628.07,650.68z"/>
			<path id="XMLID_996_" class="st3" d="M628.07,640.71c0,0-6.06,0.14-16.67,0.38c-10.61,0.16-25.77,0.54-43.96,0.71
				c-18.19,0.16-39.41,0.52-62.15,0.59c-22.74,0.08-46.99,0.17-71.24,0.26c-24.25-0.09-48.51-0.17-71.24-0.25
				c-22.74-0.06-43.96-0.43-62.15-0.59c-18.19-0.17-33.35-0.56-43.96-0.71c-10.61-0.24-16.67-0.38-16.67-0.38s6.06-0.14,16.67-0.38
				c10.61-0.16,25.77-0.54,43.96-0.71c18.19-0.16,39.41-0.53,62.15-0.59c22.74-0.08,46.99-0.17,71.24-0.25
				c24.25,0.09,48.51,0.18,71.24,0.26c22.74,0.07,43.96,0.43,62.15,0.59c18.19,0.18,33.35,0.56,43.96,0.71
				C622,640.58,628.07,640.71,628.07,640.71z"/>
			<path id="XMLID_995_" class="st3" d="M641.52,632.08c0,0-6.53,0.14-17.96,0.38c-11.43,0.16-27.75,0.54-47.35,0.71
				c-19.59,0.16-42.45,0.52-66.94,0.59c-24.49,0.08-50.61,0.17-76.73,0.26c-26.12-0.09-52.24-0.17-76.73-0.25
				c-24.49-0.06-47.35-0.43-66.94-0.59c-19.59-0.17-35.92-0.56-47.35-0.71c-11.43-0.24-17.96-0.38-17.96-0.38s6.53-0.14,17.96-0.38
				c11.43-0.16,27.75-0.54,47.35-0.71c19.59-0.16,42.45-0.53,66.94-0.59c24.49-0.08,50.61-0.17,76.73-0.25
				c26.12,0.09,52.24,0.18,76.73,0.26c24.49,0.07,47.35,0.43,66.94,0.59c19.59,0.18,35.92,0.56,47.35,0.71
				C634.99,631.94,641.52,632.08,641.52,632.08z"/>
			<path id="XMLID_994_" class="st3" d="M656.8,622.77c0,0-7.08,0.14-19.47,0.38c-12.39,0.16-30.09,0.54-51.34,0.71
				c-21.24,0.16-46.03,0.52-72.58,0.59c-26.55,0.08-54.88,0.17-83.2,0.26c-28.32-0.09-56.65-0.17-83.2-0.25
				c-26.55-0.06-51.34-0.43-72.58-0.59c-21.24-0.17-38.94-0.56-51.34-0.71c-12.39-0.24-19.47-0.38-19.47-0.38s7.08-0.14,19.47-0.38
				c12.39-0.16,30.09-0.54,51.34-0.71c21.24-0.16,46.03-0.53,72.58-0.59c26.55-0.08,54.88-0.17,83.2-0.25
				c28.32,0.09,56.65,0.18,83.2,0.26c26.55,0.07,51.34,0.43,72.58,0.59c21.24,0.18,38.94,0.56,51.34,0.71
				C649.72,622.64,656.8,622.77,656.8,622.77z"/>
			<path id="XMLID_993_" class="st3" d="M656.8,559.65c0,0-1.77,0.05-5.09,0.16c-3.32,0.09-8.19,0.23-14.38,0.41
				c-12.39,0.25-30.09,0.77-51.34,1.1c-10.62,0.16-22.13,0.32-34.3,0.5c-12.17,0.12-25,0.26-38.28,0.39
				c-13.28,0.08-27,0.17-40.94,0.25c-13.94,0.03-28.1,0.07-42.26,0.1c-14.16-0.03-28.32-0.07-42.26-0.1
				c-13.94-0.08-27.66-0.17-40.94-0.25c-26.55-0.2-51.34-0.52-72.58-0.89c-21.24-0.32-38.94-0.85-51.34-1.1
				c-6.2-0.18-11.06-0.31-14.38-0.41c-3.32-0.1-5.09-0.16-5.09-0.16s1.77-0.05,5.09-0.16c3.32-0.09,8.19-0.23,14.38-0.41
				c12.39-0.25,30.09-0.78,51.34-1.1c21.24-0.38,46.03-0.69,72.58-0.89c13.28-0.08,27-0.16,40.94-0.25
				c13.94-0.03,28.1-0.07,42.26-0.1c14.16,0.03,28.32,0.07,42.26,0.1c13.94,0.09,27.66,0.17,40.94,0.25
				c13.28,0.14,26.11,0.27,38.28,0.39c12.17,0.18,23.68,0.35,34.3,0.5c21.24,0.33,38.94,0.85,51.34,1.1
				c6.2,0.18,11.06,0.31,14.38,0.41C655.03,559.59,656.8,559.65,656.8,559.65z"/>
			<path id="XMLID_992_" class="st3" d="M672.75,614.8c0,0-7.56,0.2-20.79,0.56c-13.23,0.25-32.12,0.77-54.8,1.1
				c-11.34,0.16-23.62,0.32-36.61,0.5c-12.99,0.12-26.69,0.26-40.86,0.39c-14.17,0.08-28.82,0.17-43.7,0.25
				c-14.88,0.03-30,0.07-45.11,0.1c-15.12-0.03-30.23-0.07-45.11-0.1c-14.88-0.08-29.52-0.17-43.7-0.25
				c-28.34-0.2-54.8-0.52-77.47-0.89c-22.68-0.32-41.57-0.85-54.8-1.1c-13.23-0.36-20.79-0.57-20.79-0.57s7.56-0.21,20.79-0.57
				c13.23-0.25,32.12-0.78,54.8-1.1c22.68-0.38,49.13-0.69,77.47-0.89c14.17-0.08,28.82-0.16,43.7-0.25
				c14.88-0.03,30-0.07,45.11-0.1c15.12,0.03,30.23,0.07,45.11,0.1c14.88,0.09,29.52,0.17,43.7,0.25
				c14.17,0.14,27.87,0.27,40.86,0.39c12.99,0.18,25.27,0.35,36.61,0.5c22.68,0.33,41.57,0.85,54.8,1.1
				C665.19,614.59,672.75,614.8,672.75,614.8z"/>
			<path id="XMLID_991_" class="st3" d="M690.69,608.15c0,0-7.84,0.2-21.56,0.56c-6.86,0.14-15.19,0.32-24.74,0.51
				c-9.55,0.21-20.33,0.44-32.09,0.55c-11.76,0.15-24.5,0.31-37.97,0.48c-13.47,0.17-27.68,0.38-42.38,0.44
				c-14.7,0.08-29.88,0.17-45.32,0.25c-15.43,0.03-31.11,0.07-46.79,0.1c-15.68-0.03-31.35-0.07-46.79-0.1
				c-15.43-0.08-30.62-0.17-45.32-0.25c-29.4-0.17-56.83-0.67-80.35-0.92c-11.76-0.12-22.54-0.34-32.09-0.55
				c-9.55-0.2-17.88-0.37-24.74-0.52c-13.72-0.36-21.56-0.57-21.56-0.57s7.84-0.21,21.56-0.57c6.86-0.14,15.19-0.32,24.74-0.52
				c9.55-0.21,20.33-0.44,32.09-0.55c23.52-0.25,50.95-0.75,80.35-0.92c14.7-0.08,29.89-0.16,45.32-0.25
				c15.43-0.03,31.11-0.07,46.79-0.1c15.68,0.03,31.35,0.07,46.79,0.1c15.43,0.09,30.62,0.17,45.32,0.25
				c14.7,0.06,28.91,0.28,42.38,0.44c13.47,0.17,26.21,0.33,37.97,0.48c11.76,0.11,22.54,0.35,32.09,0.55
				c9.55,0.2,17.88,0.37,24.74,0.51C682.85,607.95,690.69,608.15,690.69,608.15z"/>
			<path id="XMLID_990_" class="st3" d="M690.69,567.62c0,0-7.84,0.2-21.56,0.56c-6.86,0.14-15.19,0.32-24.74,0.51
				c-9.55,0.21-20.33,0.44-32.09,0.55c-11.76,0.15-24.5,0.31-37.97,0.48c-13.47,0.17-27.68,0.38-42.38,0.44
				c-14.7,0.08-29.88,0.17-45.32,0.25c-15.43,0.03-31.11,0.07-46.79,0.1c-15.68-0.03-31.35-0.07-46.79-0.1
				c-15.43-0.08-30.62-0.17-45.32-0.25c-29.4-0.17-56.83-0.67-80.35-0.92c-11.76-0.12-22.54-0.34-32.09-0.55
				c-9.55-0.2-17.88-0.37-24.74-0.52c-13.72-0.36-21.56-0.57-21.56-0.57s7.84-0.21,21.56-0.57c6.86-0.14,15.19-0.32,24.74-0.52
				c9.55-0.21,20.33-0.44,32.09-0.55c23.52-0.25,50.95-0.75,80.35-0.92c14.7-0.08,29.89-0.16,45.32-0.25
				c15.43-0.03,31.11-0.07,46.79-0.1c15.68,0.03,31.35,0.07,46.79,0.1c15.43,0.09,30.62,0.17,45.32,0.25
				c14.7,0.06,28.91,0.28,42.38,0.44c13.47,0.17,26.21,0.33,37.97,0.48c11.76,0.11,22.54,0.35,32.09,0.55
				c9.55,0.2,17.88,0.37,24.74,0.51C682.85,567.42,690.69,567.62,690.69,567.62z"/>
			<path id="XMLID_989_" class="st3" d="M690.69,551.67c0,0-7.84,0.2-21.56,0.56c-6.86,0.14-15.19,0.32-24.74,0.51
				c-9.55,0.21-20.33,0.44-32.09,0.55c-11.76,0.15-24.5,0.31-37.97,0.48c-13.47,0.17-27.68,0.38-42.38,0.44
				c-14.7,0.08-29.88,0.17-45.32,0.25c-15.43,0.03-31.11,0.07-46.79,0.1c-15.68-0.03-31.35-0.07-46.79-0.1
				c-15.43-0.08-30.62-0.17-45.32-0.25c-29.4-0.17-56.83-0.67-80.35-0.92c-11.76-0.12-22.54-0.34-32.09-0.55
				c-9.55-0.2-17.88-0.37-24.74-0.52c-13.72-0.36-21.56-0.57-21.56-0.57s7.84-0.21,21.56-0.57c6.86-0.14,15.19-0.32,24.74-0.52
				c9.55-0.21,20.33-0.44,32.09-0.55c23.52-0.25,50.95-0.75,80.35-0.92c14.7-0.08,29.89-0.16,45.32-0.25
				c15.43-0.03,31.11-0.07,46.79-0.1c15.68,0.03,31.35,0.07,46.79,0.1c15.43,0.09,30.62,0.17,45.32,0.25
				c14.7,0.06,28.91,0.28,42.38,0.44c13.47,0.17,26.21,0.33,37.97,0.48c11.76,0.11,22.54,0.35,32.09,0.55
				c9.55,0.2,17.88,0.37,24.74,0.51C682.85,551.47,690.69,551.67,690.69,551.67z"/>
			<path id="XMLID_988_" class="st3" d="M690.69,543.7c0,0-7.84,0.2-21.56,0.56c-6.86,0.14-15.19,0.32-24.74,0.51
				c-9.55,0.21-20.33,0.44-32.09,0.55c-11.76,0.15-24.5,0.31-37.97,0.48c-13.47,0.17-27.68,0.38-42.38,0.44
				c-14.7,0.08-29.88,0.17-45.32,0.25c-15.43,0.03-31.11,0.07-46.79,0.1c-15.68-0.03-31.35-0.07-46.79-0.1
				c-15.43-0.08-30.62-0.17-45.32-0.25c-29.4-0.17-56.83-0.67-80.35-0.92c-11.76-0.12-22.54-0.34-32.09-0.55
				c-9.55-0.2-17.88-0.37-24.74-0.52c-13.72-0.36-21.56-0.57-21.56-0.57s7.84-0.21,21.56-0.57c6.86-0.14,15.19-0.32,24.74-0.52
				c9.55-0.21,20.33-0.44,32.09-0.55c23.52-0.25,50.95-0.75,80.35-0.92c14.7-0.08,29.89-0.16,45.32-0.25
				c15.43-0.03,31.11-0.07,46.79-0.1c15.68,0.03,31.35,0.07,46.79,0.1c15.43,0.09,30.62,0.17,45.32,0.25
				c14.7,0.06,28.91,0.28,42.38,0.44c13.47,0.17,26.21,0.33,37.97,0.48c11.76,0.11,22.54,0.35,32.09,0.55
				c9.55,0.2,17.88,0.37,24.74,0.51C682.85,543.5,690.69,543.7,690.69,543.7z"/>
			<path id="XMLID_987_" class="st3" d="M690.69,535.67c0,0-7.84,0.2-21.56,0.56c-6.86,0.14-15.19,0.32-24.74,0.51
				c-9.55,0.21-20.33,0.44-32.09,0.55c-11.76,0.15-24.5,0.31-37.97,0.48c-13.47,0.17-27.68,0.38-42.38,0.44
				c-14.7,0.08-29.88,0.17-45.32,0.25c-15.43,0.03-31.11,0.07-46.79,0.1c-15.68-0.03-31.35-0.07-46.79-0.1
				c-15.43-0.08-30.62-0.17-45.32-0.25c-29.4-0.17-56.83-0.67-80.35-0.92c-11.76-0.12-22.54-0.34-32.09-0.55
				c-9.55-0.2-17.88-0.37-24.74-0.52c-13.72-0.36-21.56-0.57-21.56-0.57s7.84-0.21,21.56-0.57c6.86-0.14,15.19-0.32,24.74-0.52
				c9.55-0.21,20.33-0.44,32.09-0.55c23.52-0.26,50.95-0.75,80.35-0.92c14.7-0.08,29.89-0.16,45.32-0.25
				c15.43-0.03,31.11-0.07,46.79-0.1c15.68,0.03,31.35,0.07,46.79,0.1c15.43,0.09,30.62,0.17,45.32,0.25
				c14.7,0.06,28.91,0.28,42.38,0.44c13.47,0.17,26.21,0.33,37.97,0.48c11.76,0.11,22.54,0.35,32.09,0.55
				c9.55,0.2,17.88,0.37,24.74,0.51C682.85,535.47,690.69,535.67,690.69,535.67z"/>
			<path id="XMLID_986_" class="st3" d="M690.69,520.39c0,0-7.84,0.2-21.56,0.56c-6.86,0.14-15.19,0.32-24.74,0.51
				c-9.55,0.21-20.33,0.44-32.09,0.55c-11.76,0.15-24.5,0.31-37.97,0.48c-13.47,0.17-27.68,0.38-42.38,0.44
				c-14.7,0.08-29.88,0.17-45.32,0.25c-15.43,0.03-31.11,0.07-46.79,0.1c-15.68-0.03-31.35-0.07-46.79-0.1
				c-15.43-0.08-30.62-0.17-45.32-0.25c-29.4-0.17-56.83-0.67-80.35-0.92c-11.76-0.12-22.54-0.34-32.09-0.55
				c-9.55-0.2-17.88-0.37-24.74-0.52c-13.72-0.36-21.56-0.57-21.56-0.57s7.84-0.21,21.56-0.57c6.86-0.14,15.19-0.32,24.74-0.52
				c9.55-0.21,20.33-0.44,32.09-0.55c23.52-0.25,50.95-0.75,80.35-0.92c14.7-0.08,29.89-0.16,45.32-0.25
				c15.43-0.03,31.11-0.07,46.79-0.1c15.68,0.03,31.35,0.07,46.79,0.1c15.43,0.09,30.62,0.17,45.32,0.25
				c14.7,0.06,28.91,0.28,42.38,0.44c13.47,0.17,26.21,0.33,37.97,0.48c11.76,0.11,22.54,0.35,32.09,0.55
				c9.55,0.2,17.88,0.37,24.74,0.51C682.85,520.19,690.69,520.39,690.69,520.39z"/>
			<path id="XMLID_985_" class="st3" d="M690.69,506.99c0,0-7.84,0.2-21.56,0.56c-6.86,0.14-15.19,0.32-24.74,0.51
				c-9.55,0.21-20.33,0.44-32.09,0.55c-11.76,0.15-24.5,0.31-37.97,0.48c-13.47,0.17-27.68,0.38-42.38,0.44
				c-14.7,0.08-29.88,0.17-45.32,0.25c-15.43,0.03-31.11,0.07-46.79,0.1c-15.68-0.03-31.35-0.07-46.79-0.1
				c-15.43-0.08-30.62-0.17-45.32-0.25c-29.4-0.17-56.83-0.67-80.35-0.92c-11.76-0.12-22.54-0.34-32.09-0.55
				c-9.55-0.2-17.88-0.37-24.74-0.52c-13.72-0.36-21.56-0.57-21.56-0.57s7.84-0.21,21.56-0.57c6.86-0.14,15.19-0.32,24.74-0.52
				c9.55-0.21,20.33-0.44,32.09-0.55c23.52-0.25,50.95-0.75,80.35-0.92c14.7-0.08,29.89-0.16,45.32-0.25
				c15.43-0.03,31.11-0.07,46.79-0.1c15.68,0.03,31.35,0.07,46.79,0.1c15.43,0.09,30.62,0.17,45.32,0.25
				c14.7,0.06,28.91,0.28,42.38,0.44c13.47,0.17,26.21,0.33,37.97,0.48c11.76,0.11,22.54,0.35,32.09,0.55
				c9.55,0.2,17.88,0.37,24.74,0.51C682.85,506.79,690.69,506.99,690.69,506.99z"/>
			<path id="XMLID_984_" class="st3" d="M690.69,528.36c0,0-7.84,0.2-21.56,0.56c-6.86,0.14-15.19,0.32-24.74,0.51
				c-9.55,0.21-20.33,0.44-32.09,0.55c-11.76,0.15-24.5,0.31-37.97,0.48c-13.47,0.17-27.68,0.38-42.38,0.44
				c-14.7,0.08-29.88,0.17-45.32,0.25c-15.43,0.03-31.11,0.07-46.79,0.1c-15.68-0.03-31.35-0.07-46.79-0.1
				c-15.43-0.08-30.62-0.17-45.32-0.25c-29.4-0.17-56.83-0.67-80.35-0.92c-11.76-0.12-22.54-0.34-32.09-0.55
				c-9.55-0.2-17.88-0.37-24.74-0.52c-13.72-0.36-21.56-0.57-21.56-0.57s7.84-0.21,21.56-0.57c6.86-0.14,15.19-0.32,24.74-0.52
				c9.55-0.21,20.33-0.44,32.09-0.55c23.52-0.26,50.95-0.75,80.35-0.92c14.7-0.08,29.89-0.16,45.32-0.25
				c15.43-0.03,31.11-0.07,46.79-0.1c15.68,0.03,31.35,0.07,46.79,0.1c15.43,0.09,30.62,0.17,45.32,0.25
				c14.7,0.06,28.91,0.28,42.38,0.44c13.47,0.17,26.21,0.33,37.97,0.48c11.76,0.11,22.54,0.35,32.09,0.55
				c9.55,0.2,17.88,0.37,24.74,0.51C682.85,528.16,690.69,528.36,690.69,528.36z"/>
			<path id="XMLID_983_" class="st3" d="M690.69,513.03c0,0-7.84,0.2-21.56,0.56c-6.86,0.14-15.19,0.32-24.74,0.51
				c-9.55,0.21-20.33,0.44-32.09,0.55c-11.76,0.15-24.5,0.31-37.97,0.48c-13.47,0.17-27.68,0.38-42.38,0.44
				c-14.7,0.08-29.88,0.17-45.32,0.25c-15.43,0.03-31.11,0.07-46.79,0.1c-15.68-0.03-31.35-0.07-46.79-0.1
				c-15.43-0.08-30.62-0.17-45.32-0.25c-29.4-0.17-56.83-0.67-80.35-0.92c-11.76-0.12-22.54-0.34-32.09-0.55
				c-9.55-0.2-17.88-0.37-24.74-0.52c-13.72-0.36-21.56-0.57-21.56-0.57s7.84-0.21,21.56-0.57c6.86-0.14,15.19-0.32,24.74-0.52
				c9.55-0.21,20.33-0.44,32.09-0.55c23.52-0.25,50.95-0.75,80.35-0.92c14.7-0.08,29.89-0.16,45.32-0.25
				c15.43-0.03,31.11-0.07,46.79-0.1c15.68,0.03,31.35,0.07,46.79,0.1c15.43,0.09,30.62,0.17,45.32,0.25
				c14.7,0.06,28.91,0.28,42.38,0.44c13.47,0.17,26.21,0.33,37.97,0.48c11.76,0.11,22.54,0.35,32.09,0.55
				c9.55,0.2,17.88,0.37,24.74,0.51C682.85,512.82,690.69,513.03,690.69,513.03z"/>
			<path id="XMLID_982_" class="st3" d="M690.69,574.93c0,0-7.84,0.2-21.56,0.56c-6.86,0.14-15.19,0.32-24.74,0.51
				c-9.55,0.21-20.33,0.44-32.09,0.55c-11.76,0.15-24.5,0.31-37.97,0.48c-13.47,0.17-27.68,0.38-42.38,0.44
				c-14.7,0.08-29.88,0.17-45.32,0.25c-15.43,0.03-31.11,0.07-46.79,0.1c-15.68-0.03-31.35-0.07-46.79-0.1
				c-15.43-0.08-30.62-0.17-45.32-0.25c-29.4-0.17-56.83-0.67-80.35-0.92c-11.76-0.12-22.54-0.34-32.09-0.55
				c-9.55-0.2-17.88-0.37-24.74-0.52c-13.72-0.36-21.56-0.57-21.56-0.57s7.84-0.21,21.56-0.57c6.86-0.14,15.19-0.32,24.74-0.52
				c9.55-0.21,20.33-0.44,32.09-0.55c23.52-0.26,50.95-0.75,80.35-0.92c14.7-0.08,29.89-0.16,45.32-0.25
				c15.43-0.03,31.11-0.07,46.79-0.1c15.68,0.03,31.35,0.07,46.79,0.1c15.43,0.09,30.62,0.17,45.32,0.25
				c14.7,0.06,28.91,0.28,42.38,0.44c13.47,0.17,26.21,0.33,37.97,0.48c11.76,0.11,22.54,0.35,32.09,0.55
				c9.55,0.2,17.88,0.37,24.74,0.51C682.85,574.73,690.69,574.93,690.69,574.93z"/>
			<path id="XMLID_981_" class="st3" d="M690.69,582.9c0,0-7.84,0.2-21.56,0.56c-6.86,0.14-15.19,0.32-24.74,0.51
				c-9.55,0.21-20.33,0.44-32.09,0.55c-11.76,0.15-24.5,0.31-37.97,0.48c-13.47,0.17-27.68,0.38-42.38,0.44
				c-14.7,0.08-29.88,0.17-45.32,0.25c-15.43,0.03-31.11,0.07-46.79,0.1c-15.68-0.03-31.35-0.07-46.79-0.1
				c-15.43-0.08-30.62-0.17-45.32-0.25c-29.4-0.17-56.83-0.67-80.35-0.92c-11.76-0.12-22.54-0.34-32.09-0.55
				c-9.55-0.2-17.88-0.37-24.74-0.52c-13.72-0.36-21.56-0.57-21.56-0.57s7.84-0.21,21.56-0.57c6.86-0.14,15.19-0.32,24.74-0.52
				c9.55-0.21,20.33-0.44,32.09-0.55c23.52-0.25,50.95-0.75,80.35-0.92c14.7-0.08,29.89-0.16,45.32-0.25
				c15.43-0.03,31.11-0.07,46.79-0.1c15.68,0.03,31.35,0.07,46.79,0.1c15.43,0.09,30.62,0.17,45.32,0.25
				c14.7,0.06,28.91,0.28,42.38,0.44c13.47,0.17,26.21,0.33,37.97,0.48c11.76,0.11,22.54,0.35,32.09,0.55
				c9.55,0.2,17.88,0.37,24.74,0.51C682.85,582.7,690.69,582.9,690.69,582.9z"/>
			<path id="XMLID_980_" class="st3" d="M717.27,599.52c0,0-8.58,0.2-23.58,0.56c-7.5,0.14-16.62,0.32-27.07,0.51
				c-10.45,0.21-22.24,0.44-35.11,0.55c-12.86,0.15-26.8,0.31-41.54,0.48c-14.74,0.17-30.28,0.38-46.36,0.44
				c-16.08,0.08-32.7,0.17-49.58,0.25c-16.88,0.03-34.04,0.07-51.19,0.1c-17.15-0.03-34.3-0.07-51.19-0.1
				c-16.88-0.08-33.5-0.17-49.58-0.25c-32.16-0.17-62.17-0.67-87.9-0.92c-12.86-0.12-24.66-0.34-35.11-0.55
				c-10.45-0.2-19.56-0.37-27.07-0.52c-15.01-0.36-23.58-0.57-23.58-0.57s8.58-0.21,23.58-0.57c7.5-0.14,16.62-0.32,27.07-0.52
				c10.45-0.21,22.24-0.44,35.11-0.55c25.73-0.25,55.74-0.75,87.9-0.92c16.08-0.08,32.7-0.16,49.58-0.25
				c16.88-0.03,34.04-0.07,51.19-0.1c17.15,0.03,34.3,0.07,51.19,0.1c16.88,0.09,33.5,0.17,49.58,0.25
				c16.08,0.06,31.62,0.28,46.36,0.44c14.74,0.17,28.68,0.33,41.54,0.48c12.86,0.11,24.66,0.35,35.11,0.55
				c10.45,0.2,19.56,0.37,27.07,0.51C708.69,599.31,717.27,599.52,717.27,599.52z"/>
			<path id="XMLID_979_" class="st3" d="M717.27,590.88c0,0-8.58,0.2-23.58,0.56c-7.5,0.14-16.62,0.32-27.07,0.51
				c-10.45,0.21-22.24,0.44-35.11,0.55c-12.86,0.15-26.8,0.31-41.54,0.48c-14.74,0.17-30.28,0.38-46.36,0.44
				c-16.08,0.08-32.7,0.17-49.58,0.25c-16.88,0.03-34.04,0.07-51.19,0.1c-17.15-0.03-34.3-0.07-51.19-0.1
				c-16.88-0.08-33.5-0.17-49.58-0.25c-32.16-0.17-62.17-0.67-87.9-0.92c-12.86-0.12-24.66-0.34-35.11-0.55
				c-10.45-0.2-19.56-0.37-27.07-0.52c-15.01-0.36-23.58-0.57-23.58-0.57s8.58-0.21,23.58-0.57c7.5-0.14,16.62-0.32,27.07-0.52
				c10.45-0.21,22.24-0.44,35.11-0.55c25.73-0.25,55.74-0.75,87.9-0.92c16.08-0.08,32.7-0.16,49.58-0.25
				c16.88-0.03,34.04-0.07,51.19-0.1c17.15,0.03,34.3,0.07,51.19,0.1c16.88,0.09,33.5,0.17,49.58,0.25
				c16.08,0.06,31.62,0.28,46.36,0.44c14.74,0.17,28.68,0.33,41.54,0.48c12.86,0.11,24.66,0.35,35.11,0.55
				c10.45,0.2,19.56,0.37,27.07,0.51C708.69,590.67,717.27,590.88,717.27,590.88z"/>
		</g>
	</g>
</g>
<g id="XMLID_15_">
	<path id="XMLID_209_" class="st4" d="M132.89,409.23c9.67,0,16.84,4.9,21.52,14.71c4.68,9.81,7.02,24.98,7.02,45.52
		c0,21.03-2.42,36.81-7.25,47.33c-4.84,10.52-12.05,15.78-21.66,15.78c-9.48,0-16.67-5.38-21.57-16.15
		c-4.9-10.76-7.35-26.42-7.35-46.96c0-19.18,2.2-34.02,6.59-44.5c4.39-10.49,11.77-15.73,22.13-15.73H132.89z M143.91,511.19v-81.33
		c0-5.37-1.1-9.67-3.3-12.91c-2.2-3.24-4.96-4.86-8.29-4.86c-3.27,0-5.95,1.74-8.05,5.23c-2.1,3.49-3.15,8.19-3.15,14.11v79.76
		c0,5.55,1.08,10.04,3.25,13.46s5.01,5.14,8.52,5.14c3.2,0,5.84-1.71,7.91-5.14C142.88,521.23,143.91,516.74,143.91,511.19z"/>
	<path id="XMLID_212_" class="st4" d="M235.72,497.78l-0.38,33.49h-51.89v-2.87h8.29V413.58h-8.29v-2.87h32.58v2.87h-8.29V528.4
		h4.43c6.15,0,10.84-2.45,14.08-7.36c3.23-4.9,5.41-12.66,6.55-23.27H235.72z"/>
	<path id="XMLID_214_" class="st4" d="M286.09,413.58h-8.29V528.4h8.1v2.87h-32.4v-2.87h8.29V413.58h-8.29v-2.87h32.58V413.58z"/>
	<path id="XMLID_216_" class="st4" d="M373.85,413.58h-2.54c-4.71,0-7.72,3.24-9.04,9.72l-22.6,109.64h-3.58l-26.65-119.36h-7.72
		v-2.87h31.83v2.87h-7.91l18.08,83.55l15.07-73.09c0.38-2.28,0.57-3.85,0.57-4.72c0-3.82-2.04-5.74-6.12-5.74h-4.43v-2.87h25.05
		V413.58z"/>
	<path id="XMLID_218_" class="st4" d="M446.92,531.27h-57.45v-2.87h8.29V413.58h-8.29v-2.87h56.88v26.55h-2.92
		c-1-8.08-2.94-14.05-5.79-17.9c-2.86-3.85-6.89-5.78-12.1-5.78h-11.77v51.91h8.1c3.64,0,6.64-1.17,8.99-3.52
		c2.35-2.34,3.53-5.27,3.53-8.79v-4.72h2.92v38.68h-2.73v-1.11c0-5.3-1.12-9.54-3.34-12.72c-2.23-3.18-5.16-4.76-8.81-4.76h-8.66
		v59.86h9.61c6.03,0,10.58-2.31,13.66-6.94c3.08-4.63,5.43-11.84,7.06-21.65h2.83V531.27z"/>
	<path id="XMLID_220_" class="st4" d="M584.87,519.89c-1.32,8.2-5.37,12.31-12.15,12.31c-4.84,0-8.59-1.93-11.25-5.78
		c-2.67-3.85-4-9.51-4-16.98v-31.18c0-3.52-0.75-6.17-2.26-7.96c-1.51-1.79-3.77-2.68-6.78-2.68h-7.91v60.79h8.29v2.87h-32.58v-2.87
		h8.29V413.58h-8.29v-2.87h35.5c7.47,0,13.2,2.42,17.19,7.26c3.99,4.84,5.98,11.64,5.98,20.4c0,8.64-1.46,15-4.38,19.11
		c-2.92,4.1-7.52,6.89-13.8,8.37v0.46h1.51c4.52,0,8.19,1.84,11.02,5.51c2.83,3.67,4.24,8.59,4.24,14.76v32.38
		c0,4.13,1.22,6.2,3.67,6.2c2.57,0,4.17-1.94,4.8-5.83L584.87,519.89z M557.65,452.81v-23.87c0-5.12-0.82-8.96-2.45-11.52
		c-1.63-2.56-4.08-3.84-7.35-3.84h-7.35v51.17h7.72c2.76,0,5.02-1.11,6.78-3.33C556.77,459.19,557.65,456.33,557.65,452.81z"/>
	<path id="XMLID_223_" class="st4" d="M632.7,409.23c9.67,0,16.84,4.9,21.52,14.71c4.68,9.81,7.02,24.98,7.02,45.52
		c0,21.03-2.42,36.81-7.25,47.33c-4.84,10.52-12.05,15.78-21.66,15.78c-9.48,0-16.67-5.38-21.57-16.15
		c-4.9-10.76-7.35-26.42-7.35-46.96c0-19.18,2.2-34.02,6.59-44.5c4.39-10.49,11.77-15.73,22.13-15.73H632.7z M643.72,511.19v-81.33
		c0-5.37-1.1-9.67-3.3-12.91c-2.2-3.24-4.96-4.86-8.29-4.86c-3.26,0-5.95,1.74-8.05,5.23c-2.1,3.49-3.16,8.19-3.16,14.11v79.76
		c0,5.55,1.08,10.04,3.25,13.46c2.17,3.42,5.01,5.14,8.52,5.14c3.2,0,5.84-1.71,7.91-5.14
		C642.68,521.23,643.72,516.74,643.72,511.19z"/>
	<path id="XMLID_226_" class="st4" d="M731.85,443.74c-1.45-10.36-4.02-18.23-7.72-23.59c-3.71-5.37-8.07-8.05-13.09-8.05
		c-3.33,0-6.12,1.45-8.38,4.35c-2.26,2.9-3.39,6.69-3.39,11.38c0,5.31,1.16,10.21,3.49,14.71c2.32,4.5,6.75,10.27,13.28,17.3
		c9.17,9.81,15.57,18.13,19.21,24.98c3.64,6.85,5.46,13.66,5.46,20.45c0,7.83-2.47,14.34-7.39,19.52
		c-4.93,5.18-11.79,7.77-20.58,7.77c-4.84,0-9.57-1.88-14.22-5.64c-1.82-1.54-3.11-2.31-3.86-2.31c-3.27,0-5.09,2.22-5.46,6.66
		h-2.82v-37.57h2.82c1.38,11.6,4.33,20.51,8.85,26.74c4.52,6.23,9.48,9.34,14.88,9.34c4.39,0,7.78-1.45,10.17-4.35
		c2.39-2.9,3.58-7.03,3.58-12.4c0-5.86-1.59-11.69-4.76-17.49c-3.17-5.8-8.59-12.71-16.25-20.73c-6.91-7.22-11.91-13.65-15.02-19.29
		c-3.11-5.64-4.66-11.21-4.66-16.7c0-9.44,2.35-16.73,7.06-21.88c4.71-5.15,10.64-7.73,17.8-7.73c4.02,0,8.35,1.42,13,4.26
		c2.13,1.36,3.64,2.04,4.52,2.04c2.32,0,3.48-1.39,3.48-4.16v-0.65h2.92v33.03H731.85z"/>
	<path id="XMLID_228_" class="st4" d="M817.64,531.27h-57.45v-2.87h8.29V413.58h-8.29v-2.87h56.88v26.55h-2.92
		c-1-8.08-2.94-14.05-5.79-17.9c-2.86-3.85-6.89-5.78-12.1-5.78h-11.77v51.91h8.1c3.64,0,6.64-1.17,8.99-3.52
		c2.35-2.34,3.53-5.27,3.53-8.79v-4.72h2.92v38.68h-2.73v-1.11c0-5.3-1.12-9.54-3.34-12.72c-2.23-3.18-5.16-4.76-8.8-4.76h-8.66
		v59.86h9.61c6.03,0,10.58-2.31,13.66-6.94c3.08-4.63,5.43-11.84,7.06-21.65h2.83V531.27z"/>
</g>
<g id="XMLID_56_">
	<path id="XMLID_165_" class="st5" d="M325.49,571.02v35.28h-5.04v-15.73h-20.26v15.73h-5.04v-35.28h5.04v15.17h20.26v-15.17H325.49
		z"/>
	<path id="XMLID_168_" class="st5" d="M332.9,592.95c0-7.96,5.9-13.61,13.91-13.61c8.01,0,13.86,5.65,13.86,13.61
		s-5.85,13.66-13.86,13.66C338.8,606.61,332.9,600.91,332.9,592.95z M355.79,592.95c0-5.7-3.83-9.38-8.97-9.38
		c-5.14,0-9.02,3.68-9.02,9.38c0,5.7,3.88,9.43,9.02,9.43C351.95,602.37,355.79,598.64,355.79,592.95z"/>
	<path id="XMLID_173_" class="st5" d="M411.74,590.93v15.37h-4.84v-14.82c0-5.24-2.52-7.81-6.91-7.81c-4.84,0-8.01,3.08-8.01,8.87
		v13.76h-4.84v-14.82c0-5.24-2.52-7.81-6.91-7.81c-4.84,0-8.01,3.08-8.01,8.87v13.76h-4.84v-26.71h4.64v3.98
		c1.92-2.72,5.19-4.23,9.22-4.23c4.08,0,7.51,1.61,9.27,4.94c2.02-3.02,5.75-4.94,10.28-4.94
		C407.3,579.34,411.74,583.07,411.74,590.93z"/>
	<path id="XMLID_176_" class="st5" d="M444.86,594.56h-21.67c0.61,4.69,4.39,7.81,9.68,7.81c3.13,0,5.75-1.06,7.71-3.23l2.67,3.12
		c-2.42,2.82-6.1,4.33-10.53,4.33c-8.62,0-14.37-5.7-14.37-13.66c0-7.91,5.7-13.61,13.41-13.61c7.71,0,13.21,5.55,13.21,13.76
		C444.96,593.5,444.91,594.11,444.86,594.56z M423.19,591.08h17.14c-0.5-4.49-3.88-7.66-8.57-7.66
		C427.12,583.42,423.69,586.55,423.19,591.08z"/>
	<path id="XMLID_182_" class="st5" d="M465.94,571.02h14.87c11.34,0,19.05,7.16,19.05,17.64c0,10.48-7.71,17.64-19.05,17.64h-14.87
		V571.02z M480.51,601.92c8.72,0,14.31-5.34,14.31-13.26c0-7.91-5.6-13.26-14.31-13.26h-9.53v26.51H480.51z"/>
	<path id="XMLID_191_" class="st5" d="M530.92,594.56h-21.67c0.6,4.69,4.38,7.81,9.68,7.81c3.12,0,5.75-1.06,7.71-3.23l2.67,3.12
		c-2.42,2.82-6.1,4.33-10.54,4.33c-8.62,0-14.37-5.7-14.37-13.66c0-7.91,5.7-13.61,13.41-13.61c7.71,0,13.21,5.55,13.21,13.76
		C531.02,593.5,530.97,594.11,530.92,594.56z M509.24,591.08h17.14c-0.5-4.49-3.88-7.66-8.57-7.66
		C513.17,583.42,509.75,586.55,509.24,591.08z"/>
	<path id="XMLID_195_" class="st5" d="M535.25,592.95c0-7.96,5.9-13.61,14.11-13.61c4.79,0,8.77,1.97,10.89,5.7l-3.68,2.37
		c-1.71-2.62-4.33-3.83-7.26-3.83c-5.24,0-9.17,3.68-9.17,9.38c0,5.8,3.93,9.43,9.17,9.43c2.92,0,5.54-1.21,7.26-3.83l3.68,2.32
		c-2.12,3.73-6.1,5.75-10.89,5.75C541.15,606.61,535.25,600.91,535.25,592.95z"/>
	<path id="XMLID_198_" class="st5" d="M563.64,592.95c0-7.96,5.9-13.61,13.91-13.61c8.01,0,13.86,5.65,13.86,13.61
		s-5.85,13.66-13.86,13.66C569.54,606.61,563.64,600.91,563.64,592.95z M586.52,592.95c0-5.7-3.83-9.38-8.97-9.38
		c-5.14,0-9.02,3.68-9.02,9.38c0,5.7,3.88,9.43,9.02,9.43C582.69,602.37,586.52,598.64,586.52,592.95z"/>
	<path id="XMLID_207_" class="st5" d="M612.48,579.34v4.69c-0.4-0.05-0.76-0.05-1.11-0.05c-5.19,0-8.42,3.18-8.42,9.02v13.31h-4.84
		v-26.71h4.64v4.49C604.47,580.95,607.8,579.34,612.48,579.34z"/>
</g>
<g id="XMLID_55_">
	<g>
		<rect id="XMLID_11_" x="108.34" y="549.74" class="st4" width="723.01" height="5.82"/>
	</g>
</g>
<g id="XMLID_3_">
	<path id="XMLID_49_" class="st6" d="M879.05,575.61c0.24-0.05,0.5,0,0.73-0.06c2.05-0.54,4.12-1.01,6.13-1.67
		c1.13-0.37,1.22-1.26,0.41-2.16c-0.86-0.95-1.79-1.84-2.58-2.85c-1.07-1.38-2.28-2.02-4.14-2.03c-3.94-0.02-6.63-2.42-7.46-6.26
		c-0.27-1.23-0.36-2.5-0.58-4.11c-1.87,3.4-3.71,6.43-5.18,9.63c-0.44,0.95-0.28,2.74,0.36,3.51
		C869.91,573.37,873.35,576.9,879.05,575.61z"/>
	<path id="XMLID_76_" class="st6" d="M913,535.28c-4.48-2.53-8.75-4.98-13.07-7.35c-4.43-2.44-8.99-4.65-13.34-7.24
		c-4.34-2.58-6.2-6.59-5.47-11.65c0.18-1.25,0.61-2.45,0.95-3.77c-0.48-0.02-0.91-0.11-1.32-0.05c-5.83,0.92-11.7,1.65-17.47,2.84
		c-6.41,1.32-12.59,3.42-17.74,7.61c-0.75-0.23-1.51-0.45-2.29-0.63c-1.29-0.3-2.66-0.47-3.98-0.43c-2.5,0.09-3.98,1.86-3.47,4.3
		c0.39,1.82,1.13,3.59,1.87,5.32c1.06,2.46,1.67,4.97,1.38,7.65c-0.23,2.12-0.53,4.23-0.8,6.35c-0.35,2.76-0.13,5.39,0.56,7.96
		c-4.47-0.09-8.75,0.72-12.51,3.72c-1.75,1.39-3.15,3.22-4.71,4.85c0.17,0.21,0.34,0.42,0.5,0.62c0.91,0,1.82-0.02,2.74,0
		c6.86,0.18,15.38,7.78,13.29,16.11c-0.46,1.83-0.69,3.63-0.67,5.38c-0.67-0.97-1.25-2.04-1.72-3.22c-2.15,0.42-2.92,0.9-3.1,2.75
		c-0.25,2.59-0.32,5.23-0.14,7.83c0.32,4.63,2.85,7.65,7.27,9.08c1.74,0.56,3.46,1.18,5.2,1.73c5.38,1.71,9.95,4.46,13.09,9.39
		c1.09,1.71,2.73,3.11,4.26,4.49c1.8,1.62,4.17,0.93,5.08-1.42c0.28-0.71,0.34-1.55,0.35-2.32c0.01-1.12,0.01-2.24,0.01-3.36
		c0.74,0.03,1.48,0.04,2.23,0.04c6.85-0.01,13.57-0.81,19.58-4.36c11.42-6.75,17.07-17.1,17.85-30.13
		c0.34-5.77,0.13-11.58,0.1-17.37C907.48,544.46,908.13,539.22,913,535.28z M866.58,520.99c-2.47,3.29-4.83,6.67-7.33,9.93
		c-1.44,1.88-3.11,3.57-4.87,5.56c1.44-0.63,2.62-1.16,3.81-1.67c5.61-2.41,11.42-3.95,17.58-3.92c3.05,0.02,4.9,1.16,5.64,3.71
		c-1.08-0.09-2.34,0.19-3.72,0.91c-0.81,0.42-1.67,0.84-2.31,1.46c-3.27,3.17-6.51,6.38-9.71,9.63c-2.32,2.35-3.09,5.24-3.03,8.52
		c0.07,3.63-0.17,7.27-0.27,10.89c0.12-0.12,0.42-0.35,0.59-0.65c2.09-3.56,4.24-7.09,6.2-10.72c1.79-3.32,3.3-6.79,5.09-10.11
		c1.14-2.11,2.62-4.22,5.04-4.78c0.83-0.19,1.7-0.22,2.59-0.19c0.01,0.65,0.01,1.31,0.03,1.96c-0.98-0.06-2,0.4-2.86,1.42
		c-1.35,1.61-2.35,3.51-3.66,5.5c1.4-0.13,2.42-0.31,3.44-0.3c1.71,0,3.14,0.94,3.49,2.46c0.27,1.2-0.29,2.66-0.74,3.91
		c-0.16,0.44-1.13,0.91-1.63,0.82c-0.49-0.08-1.05-0.8-1.23-1.36c-0.36-1.14-0.48-2.35-0.74-3.72c-2.75,1.34-4.12,3.45-4.54,6.19
		c-0.34,2.23,1.45,4.99,3.84,6.16c2.23,1.09,3.92,0.75,5.92-1.23c4.65-4.56,5.28-11.72,1.57-17.86c-0.21-0.35-0.45-0.65-0.7-0.91
		c2.79-0.88,3.73-2.93,2.69-6.24c-1.09-3.47-2.5-6.86-4.03-10.17c-0.16-0.35-0.33-0.7-0.5-1.05c5.24,2.36,9.28,6.02,10.82,11.9
		c1.06,4.03,0.67,7.81-2.78,10.65c-0.94,0.78-0.97,1.41-0.67,2.46c0.59,2.12,0.84,4.24,0.77,6.35c1.32,1.46,2.25,3.36,2.9,5.18
		c0-1-0.02-2-0.02-3c0.66,0.46,0.92,0.97,1.12,1.51c0.46,1.23,0.8,2.46,1.04,3.68c-0.86,1.19-1.89,2.27-2.71,3.49
		c-1.14,1.71-2.45,3.41-3.13,5.31c-0.97,2.7-2.73,4.11-5.43,4.47c-2.65,0.35-5.32,0.59-8.21,0.91c1.52,2.44,2.89,4.81,4.44,7.05
		c0.75,1.08,1.74,2.08,2.82,2.82c0.12,0.08,0.24,0.16,0.37,0.23c-0.93,0.52-1.9,0.99-2.9,1.41c-1,0.31-2.05,0.53-3.14,0.66
		c-7.97,0.94-14.89-1.75-21.19-6.33c-0.35-0.25-0.68-0.51-1-0.77c5.15,1.72,10.41,1.27,15.7-0.47c1.05-0.35,2.06-0.8,3.44-1.35
		c-1.7-0.65-3.01-1.13-4.32-1.66c-5.83-2.36-9.49-7.1-13.15-11.88c-1.16-1.52-2.49-3.04-4.06-4.07c-0.86-0.56-1.72-0.9-2.54-1.06
		c1.61-0.16,3.16-1.2,4.26-3.13c0.93-1.63,1.41-3.6,1.74-5.48c1.05-5.93,2.13-11.82,6.22-16.59c0.91-1.07,1.87-2.1,3.07-3.46
		c-1.48,0.15-2.59,0.21-3.68,0.38c-6.48,1.04-12.12,3.65-16.11,9.07c-0.03,0.04-0.05,0.08-0.08,0.12c3-6.13,6.89-11.71,11.88-16.6
		c1.69-1.66,1.74-2.23,0.13-4.05c-0.55-0.62-1.16-1.22-1.81-1.75C859.56,520.71,863.07,520.65,866.58,520.99z"/>
</g>
</svg>
